<svg xmlns="http://www.w3.org/2000/svg" viewBox="0 0 32 32">
  <defs>
    <linearGradient id="g" x1="0" y1="0" x2="1" y2="1">
      <stop offset="0" stop-color="#00e0ff" />
      <stop offset="1" stop-color="#7b5cff" />
    </linearGradient>
  </defs>
  <rect width="32" height="32" rx="8" fill="#06080f" />
  <g fill="none" stroke="url(#g)" stroke-width="2.4" stroke-linecap="round">
    <path d="M16 16 m0 0 a2 2 0 0 1 4 1 a5 5 0 0 1 -8 2 a8 8 0 0 1 11 -4" />
    <path d="M16 16 m0 0 a2 2 0 0 0 -4 -1 a5 5 0 0 0 8 -2 a8 8 0 0 0 -11 4" />
  </g>
  <circle cx="16" cy="16" r="1.8" fill="#00e0ff" />
</svg>
